<svg width="33" height="32" viewBox="0 0 33 32" fill="none" xmlns="http://www.w3.org/2000/svg">
<path d="M19.3818 5C17.8107 5 16.304 5.5874 15.1931 6.63298C14.0822 7.67856 13.4581 9.09667 13.4581 10.5753V13.6795H10.2882C10.1294 13.6795 10 13.8 10 13.9507V18.0493C10 18.1988 10.1281 18.3205 10.2882 18.3205H13.4581V26.7288C13.4581 26.8782 13.5862 27 13.7463 27H18.101C18.2598 27 18.3892 26.8795 18.3892 26.7288V18.3205H21.5873C21.7192 18.3205 21.8345 18.2362 21.8665 18.1156L22.9552 14.017C22.9659 13.977 22.9668 13.9352 22.9577 13.8949C22.9487 13.8545 22.93 13.8166 22.9031 13.7841C22.8762 13.7515 22.8417 13.7252 22.8024 13.707C22.763 13.6889 22.7198 13.6795 22.676 13.6795H18.3892V10.5753C18.3892 10.4527 18.4148 10.3312 18.4647 10.2178C18.5146 10.1045 18.5877 10.0015 18.6799 9.91473C18.7721 9.82798 18.8815 9.75916 19.0019 9.71221C19.1223 9.66526 19.2514 9.6411 19.3818 9.6411H22.7118C22.8706 9.6411 23 9.52055 23 9.36986V5.27123C23 5.12175 22.8719 5 22.7118 5H19.3818Z" fill="#8A8A8A"/>
</svg>
