<svg width="33" height="32" viewBox="0 0 33 32" fill="none" xmlns="http://www.w3.org/2000/svg">
<path d="M12.8 6H21.2C24.4 6 27 8.6 27 11.8V20.2C27 21.7383 26.3889 23.2135 25.3012 24.3012C24.2135 25.3889 22.7383 26 21.2 26H12.8C9.6 26 7 23.4 7 20.2V11.8C7 10.2617 7.61107 8.78649 8.69878 7.69878C9.78649 6.61107 11.2617 6 12.8 6ZM12.6 8C11.6452 8 10.7295 8.37928 10.0544 9.05442C9.37928 9.72955 9 10.6452 9 11.6V20.4C9 22.39 10.61 24 12.6 24H21.4C22.3548 24 23.2705 23.6207 23.9456 22.9456C24.6207 22.2705 25 21.3548 25 20.4V11.6C25 9.61 23.39 8 21.4 8H12.6ZM22.25 9.5C22.5815 9.5 22.8995 9.6317 23.1339 9.86612C23.3683 10.1005 23.5 10.4185 23.5 10.75C23.5 11.0815 23.3683 11.3995 23.1339 11.6339C22.8995 11.8683 22.5815 12 22.25 12C21.9185 12 21.6005 11.8683 21.3661 11.6339C21.1317 11.3995 21 11.0815 21 10.75C21 10.4185 21.1317 10.1005 21.3661 9.86612C21.6005 9.6317 21.9185 9.5 22.25 9.5ZM17 11C18.3261 11 19.5979 11.5268 20.5355 12.4645C21.4732 13.4021 22 14.6739 22 16C22 17.3261 21.4732 18.5979 20.5355 19.5355C19.5979 20.4732 18.3261 21 17 21C15.6739 21 14.4021 20.4732 13.4645 19.5355C12.5268 18.5979 12 17.3261 12 16C12 14.6739 12.5268 13.4021 13.4645 12.4645C14.4021 11.5268 15.6739 11 17 11ZM17 13C16.2044 13 15.4413 13.3161 14.8787 13.8787C14.3161 14.4413 14 15.2044 14 16C14 16.7956 14.3161 17.5587 14.8787 18.1213C15.4413 18.6839 16.2044 19 17 19C17.7956 19 18.5587 18.6839 19.1213 18.1213C19.6839 17.5587 20 16.7956 20 16C20 15.2044 19.6839 14.4413 19.1213 13.8787C18.5587 13.3161 17.7956 13 17 13Z" fill="#8A8A8A"/>
</svg>
