<svg width="25" height="24" viewBox="0 0 25 24" fill="none" xmlns="http://www.w3.org/2000/svg">
<rect x="0.5" width="24" height="24" rx="12" fill="#B4B4B4"/>
<path d="M12.1731 18.224C10.3011 18.224 9.03706 17.52 8.20506 16.576L9.30906 15.088C10.0131 15.776 10.8771 16.304 11.9491 16.304C13.1491 16.304 13.9651 15.712 13.9651 14.656C13.9651 13.488 13.2771 12.768 10.7011 12.768V11.072C12.8771 11.072 13.5811 10.32 13.5811 9.264C13.5811 8.336 13.0051 7.792 11.9971 7.776C11.1491 7.792 10.4611 8.192 9.75706 8.832L8.55706 7.392C9.58106 6.496 10.7171 5.936 12.1091 5.936C14.3971 5.936 15.9491 7.056 15.9491 9.088C15.9491 10.368 15.2291 11.296 13.9651 11.792V11.872C15.3091 12.24 16.3331 13.232 16.3331 14.784C16.3331 16.96 14.4291 18.224 12.1731 18.224Z" fill="white"/>
</svg>
