<svg width="33" height="32" viewBox="0 0 33 32" fill="none" xmlns="http://www.w3.org/2000/svg">
<path d="M27.46 10C26.69 10.35 25.86 10.58 25 10.69C25.88 10.16 26.56 9.32 26.88 8.31C26.05 8.81 25.13 9.16 24.16 9.36C23.37 8.5 22.26 8 21 8C18.65 8 16.73 9.92 16.73 12.29C16.73 12.63 16.77 12.96 16.84 13.27C13.28 13.09 10.11 11.38 8.00001 8.79C7.63001 9.42 7.42001 10.16 7.42001 10.94C7.42001 12.43 8.17001 13.75 9.33001 14.5C8.62001 14.5 7.96001 14.3 7.38001 14V14.03C7.38001 16.11 8.86001 17.85 10.82 18.24C10.1907 18.4122 9.5301 18.4362 8.89001 18.31C9.16162 19.1625 9.69355 19.9084 10.411 20.4429C11.1285 20.9775 11.9955 21.2737 12.89 21.29C11.3736 22.4904 9.494 23.1393 7.56001 23.13C7.22001 23.13 6.88001 23.11 6.54001 23.07C8.44001 24.29 10.7 25 13.12 25C21 25 25.33 18.46 25.33 12.79C25.33 12.6 25.33 12.42 25.32 12.23C26.16 11.63 26.88 10.87 27.46 10Z" fill="#8A8A8A"/>
</svg>
