<svg width="33" height="32" viewBox="0 0 33 32" fill="none" xmlns="http://www.w3.org/2000/svg">
<path d="M17.0708 8H17.1932C18.3235 8.00427 24.0508 8.04698 25.595 8.47691C26.0618 8.60812 26.4872 8.86388 26.8286 9.21863C27.1701 9.57337 27.4156 10.0147 27.5407 10.4984C27.6796 11.0394 27.7772 11.7555 27.8432 12.4943L27.857 12.6424L27.8872 13.0125L27.8982 13.1606C27.9876 14.4618 27.9986 15.6804 28 15.9466V16.0534C27.9986 16.3296 27.9862 17.6307 27.8872 18.986L27.8762 19.1355L27.8639 19.2836C27.7951 20.0979 27.6934 20.9065 27.5407 21.5016C27.416 21.9855 27.1706 22.427 26.8291 22.7818C26.4876 23.1366 26.062 23.3923 25.595 23.5231C23.9999 23.9673 17.9371 23.9986 17.0969 24H16.9017C16.4768 24 14.7194 23.9915 12.8768 23.926L12.643 23.9174L12.5234 23.9117L12.2883 23.9018L12.0531 23.8918C10.5268 23.822 9.07332 23.7096 8.40365 23.5217C7.93679 23.391 7.51131 23.1356 7.16982 22.781C6.82833 22.4265 6.58283 21.9853 6.4579 21.5016C6.30527 20.9079 6.20351 20.0979 6.13476 19.2836L6.12376 19.1341L6.11276 18.986C6.04489 18.0214 6.00729 17.0547 6 16.0876L6 15.9124C6.00275 15.6064 6.01375 14.5486 6.08801 13.3813L6.09763 13.2346L6.10176 13.1606L6.11276 13.0125L6.14301 12.6424L6.15676 12.4943C6.22276 11.7555 6.3204 11.038 6.45928 10.4984C6.58399 10.0145 6.8294 9.57297 7.1709 9.21816C7.51241 8.86336 7.938 8.60773 8.40503 8.47691C9.07469 8.29184 10.5282 8.17795 12.0545 8.10677L12.2883 8.09681L12.5248 8.08826L12.643 8.08399L12.8782 8.07403C14.1869 8.03043 15.4961 8.00623 16.8054 8.00142H17.0708V8ZM14.8006 12.5698V19.4288L20.5168 16.0007L14.8006 12.5698Z" fill="#8A8A8A"/>
</svg>
